<svg height="512pt" viewBox="0 0 512 512" width="512pt" xmlns="http://www.w3.org/2000/svg"><path d="m512 256c0 141.386719-114.613281 256-256 256s-256-114.613281-256-256 114.613281-256 256-256 256 114.613281 256 256zm0 0" fill="#ff3445"/><path d="m512 256c0 118.578125-80.628906 218.339844-190.058594 247.421875-4.261718 1.136719-8.5625 2.15625-12.902344 3.066406-4.328124.921875-8.699218 1.722657-13.109374 2.410157-13.007813 2.042968-26.351563 3.101562-39.929688 3.101562-141.378906 0-256-114.621094-256-256 0-46.21875 12.25-89.570312 33.679688-127 15.710937 27.441406 36.351562 51.691406 60.710937 71.539062 2.417969 1.980469 4.878906 3.910157 7.378906 5.800782 26.050781 19.691406 55.992188 34.519531 88.449219 43.121094 8.632812 2.300781 17.441406 4.148437 26.410156 5.527343 4.390625.683594 8.820313 1.25 13.292969 1.691407 4.386719.449218 8.816406.789062 13.277344 1 4.242187.210937 8.511719.320312 12.800781.320312 26.828125 0 52.699219-4.128906 77-11.789062 4.238281-1.332032 8.429688-2.769532 12.558594-4.320313.242187-.089844.480468-.179687.722656-.28125 4.488281-1.679687 8.917969-3.488281 13.277344-5.429687 9.511718-4.210938 18.722656-8.980469 27.570312-14.28125 13.859375-8.277344 26.859375-17.828126 38.859375-28.476563 20.742188-18.433594 38.460938-40.183594 52.332031-64.421875 21.429688 37.429688 33.679688 80.78125 33.679688 127zm0 0" fill="#dd1265"/><path d="m481.261719 377.699219v.011719c-43.292969 79.96875-127.941407 134.289062-225.261719 134.289062s-181.96875-54.320312-225.261719-134.289062v-.011719zm0 0" fill="#ba0d5c"/><path d="m359.558594 170.183594v90.519531c0 3.320313-.167969 6.609375-.519532 9.859375-.398437 3.910156-1.050781 7.773438-1.949218 11.570312-1.191406 5.0625-2.808594 10.019532-4.851563 14.859376-4.699219 11.101562-11.417969 21.070312-19.96875 29.621093-8.558593 8.5625-18.53125 15.28125-29.628906 19.972657-11.5 4.859374-23.710937 7.328124-36.28125 7.328124h-23.160156v8.628907c0 11.230469 2.589843 21.941406 7.699219 31.832031 3.222656 6.230469 7.410156 11.96875 12.351562 16.980469.269531.269531.539062.539062.808594.808593.121094.109376.230468.21875.339844.328126.171874.160156.339843.332031.511718.492187.140625.128906.269532.257813.410156.390625.328126.300781.667969.609375 1 .910156.257813.238282.53125.46875.800782.699219.207031.191406.417968.359375.628906.539063.191406.171874.390625.332031.589844.5.25.210937.511718.421874.769531.628906.191406.160156.371094.300781.5625.453125.066406.058593.148437.117187.21875.179687.269531.199219.53125.410156.800781.609375.257813.199219.527344.398438.796875.597657 16.742188 12.34375 30.5625 28.582031 39.960938 46.972656 4.539062 8.890625 8.0625 18.277344 10.492187 27.949218-4.261718 1.140626-8.5625 2.160157-12.902344 3.070313-4.328124.917969-8.699218 1.71875-13.109374 2.410156-1.929688-7.371093-4.660157-14.539062-8.128907-21.339843-7.539062-14.742188-18.628906-27.769532-32.082031-37.679688-10.378906-7.652344-19.199219-17.441406-25.769531-28.519531-.929688-1.570313-1.820313-3.171875-2.648438-4.792969-1.101562-2.128906-2.121093-4.308594-3.0625-6.519531h-52.089843c-15.96875 0-31-6.21875-42.296876-17.519531-7.242187-7.25-12.402343-16.03125-15.171874-25.609376-1.550782-5.351562-2.351563-10.960937-2.351563-16.691406v-40.597656h26.5625v40.597656c0 6.082032 1.648437 11.792969 4.507813 16.691406 5.773437 9.898438 16.5 16.570313 28.75 16.570313h45.113281c-.410157-3.628906-.632813-7.28125-.632813-10.941406v-218.390625h26.570313v183.203125h23.160156c17.800781 0 34.53125-6.941407 47.121094-19.519531 7.359375-7.363282 12.78125-16.132813 16.019531-25.703126 1.261719-3.75 2.199219-7.609374 2.78125-11.570312.480469-3.226562.71875-6.519531.71875-9.859375v-90.519531zm0 0" fill="#e3835a"/><path d="m321.941406 493.414062c-4.261718 1.140626-8.5625 2.160157-12.902344 3.070313-4.328124.917969-8.699218 1.71875-13.109374 2.410156-1.929688-7.371093-4.660157-14.539062-8.128907-21.339843-7.539062-14.742188-18.628906-27.769532-32.082031-37.679688-10.378906-7.652344-19.199219-17.441406-25.769531-28.519531h33.300781c.269531.269531.539062.539062.808594.808593.121094.109376.230468.21875.339844.328126.171874.160156.339843.332031.511718.492187.140625.128906.269532.257813.410156.390625.328126.300781.667969.609375 1 .910156.257813.238282.53125.46875.800782.699219.207031.191406.417968.359375.628906.539063.191406.171874.390625.332031.589844.5.25.210937.511718.421874.769531.628906.191406.160156.371094.300781.5625.453125.066406.058593.148437.117187.21875.179687.269531.199219.53125.410156.800781.609375.257813.199219.527344.398438.796875.597657 16.742188 12.34375 30.5625 28.582031 39.960938 46.972656 4.539062 8.890625 8.0625 18.277344 10.492187 27.949218zm0 0" fill="#a63914"/><g fill="#c55835"><path d="m216.636719 144.15625h26.5625v77.941406h-26.5625zm0 0"/><path d="m359.566406 170.1875v90.519531c0 7.289063-.832031 14.453125-2.472656 21.425781h-27.59375c2.300781-6.808593 3.5-14.023437 3.5-21.425781v-90.519531zm0 0"/><path d="m143.398438 356.917969h-28.71875c-1.546876-5.355469-2.351563-10.964844-2.351563-16.695313v-40.59375h26.566406v40.59375c0 6.082032 1.640625 11.785156 4.503907 16.695313zm0 0"/><path d="m220.796875 386.761719h-48.644531c-19.816406 0-36.746094-12.386719-43.457032-29.84375-1.992187-5.183594-3.082031-10.8125-3.082031-16.695313v-40.59375h13.28125v40.59375c0 6.082032 1.640625 11.789063 4.503907 16.695313 5.769531 9.894531 16.496093 16.5625 28.753906 16.5625h45.113281zm0 0"/></g><path d="m143.398438 356.917969h-14.703126c-1.992187-5.183594-3.082031-10.8125-3.082031-16.695313v-40.59375h13.28125v40.59375c0 6.082032 1.640625 11.785156 4.503907 16.695313zm0 0" fill="#a63914"/><path d="m321.941406 493.414062c-4.261718 1.140626-8.5625 2.160157-12.902344 3.070313-6.769531-26.71875-22.738281-50.570313-45.4375-67.300781-6.78125-5.007813-12.78125-11.019532-17.761718-17.828125-10.011719-13.679688-15.917969-30.550781-15.917969-48.8125v-218.390625h13.277344v218.390625c0 11.230469 2.589843 21.941406 7.699219 31.832031 3.222656 6.230469 7.410156 11.96875 12.351562 16.980469.269531.269531.539062.539062.808594.808593.121094.109376.230468.21875.339844.328126.171874.160156.339843.332031.511718.492187.140625.128906.269532.257813.410156.390625.328126.300781.667969.609375 1 .910156.257813.238282.53125.46875.800782.699219.207031.191406.417968.359375.628906.539063.191406.171874.390625.332031.589844.5.25.210937.511718.421874.769531.628906.191406.152344.371094.300781.5625.453125.066406.058593.148437.117187.21875.179687.269531.199219.53125.410156.800781.609375.257813.199219.527344.398438.796875.597657 16.742188 12.34375 30.5625 28.582031 39.960938 46.972656 4.539062 8.890625 8.0625 18.277344 10.492187 27.949218zm0 0" fill="#c55835"/><path d="m321.941406 493.414062c-4.261718 1.140626-8.5625 2.160157-12.902344 3.070313-6.769531-26.71875-22.738281-50.570313-45.4375-67.300781-6.78125-5.007813-12.78125-11.019532-17.761718-17.828125h17.410156c.269531.269531.539062.539062.808594.808593.121094.109376.230468.21875.339844.328126.171874.160156.339843.332031.511718.492187.140625.128906.269532.257813.410156.390625.328126.300781.667969.609375 1 .910156.257813.238282.53125.46875.800782.699219.207031.191406.417968.359375.628906.539063.191406.171874.390625.332031.589844.5.25.210937.511718.421874.769531.628906.191406.152344.371094.300781.5625.453125.066406.058593.148437.117187.21875.179687.269531.199219.53125.410156.800781.609375.257813.199219.527344.398438.796875.597657 16.742188 12.34375 30.5625 28.582031 39.960938 46.972656 4.539062 8.890625 8.0625 18.277344 10.492187 27.949218zm0 0" fill="#82240b"/><path d="m229.917969 144.15625h13.28125v77.941406h-13.28125zm0 0" fill="#a63914"/><path d="m346.28125 170.1875v90.519531c0 7.421875-1.011719 14.605469-2.902344 21.425781-9.363281 33.738282-40.304687 58.5-77.023437 58.5h-23.023438v-13.28125h23.023438c17.800781 0 34.539062-6.933593 47.125-19.519531 7.359375-7.355469 12.78125-16.128906 16.015625-25.699219 2.304687-6.808593 3.503906-14.023437 3.503906-21.425781v-90.519531zm0 0" fill="#c55835"/><path d="m346.28125 170.1875v90.519531c0 7.421875-1.011719 14.605469-2.902344 21.425781h-13.882812c2.304687-6.808593 3.503906-14.023437 3.503906-21.425781v-90.519531zm0 0" fill="#a63914"/><path d="m370.808594 172.710938c0 14.761718-11.96875 26.730468-26.730469 26.730468h-229.769531c-7.382813 0-14.066406-2.992187-18.902344-7.832031-4.839844-4.835937-7.832031-11.519531-7.832031-18.898437 0-14.765626 11.96875-26.738282 26.734375-26.738282h16.785156c.367188-14.441406 12.191406-26.03125 26.722656-26.03125h32.285156c.078126-21.523437 17.550782-38.949218 39.089844-38.949218 21.539063 0 39.011719 17.425781 39.089844 38.949218h32.285156c14.53125 0 26.355469 11.589844 26.726563 26.03125h16.78125c7.382812 0 14.066406 2.996094 18.902343 7.832032 4.84375 4.839843 7.832032 11.523437 7.832032 18.90625zm0 0" fill="#95d600"/><path d="m370.808594 172.710938c0 14.761718-11.96875 26.730468-26.730469 26.730468h-114.886719v-118.449218c21.542969 0 39.011719 17.425781 39.089844 38.949218h32.289062c14.53125 0 26.351563 11.59375 26.722657 26.035156h16.785156c7.382813 0 14.0625 2.992188 18.898437 7.828126 4.84375 4.839843 7.832032 11.523437 7.832032 18.90625zm0 0" fill="#85af12"/><path d="m229.191406 119.941406v26.035156h-98.097656c.367188-14.441406 12.191406-26.035156 26.722656-26.035156zm0 0" fill="#85af12"/><path d="m327.292969 145.976562h-98.101563v-26.035156h71.378906c14.53125 0 26.351563 11.59375 26.722657 26.035156zm0 0" fill="#769600"/><path d="m500.960938 241.226562c0 16.199219-13.136719 29.335938-29.335938 29.335938h-252.132812c-8.101563 0-15.433594-3.28125-20.742188-8.59375-5.308594-5.308594-8.59375-12.640625-8.59375-20.742188 0-16.203124 13.132812-29.335937 29.335938-29.335937h18.417968c.402344-15.847656 13.378906-28.570313 29.324219-28.570313h35.429687c.085938-23.617187 19.257813-42.734374 42.894532-42.734374 23.636718 0 42.804687 19.117187 42.894531 42.734374h35.429687c15.945313 0 28.917969 12.722657 29.324219 28.570313h18.417969c8.101562 0 15.433594 3.285156 20.742188 8.59375 5.3125 5.308594 8.59375 12.644531 8.59375 20.742187zm0 0" fill="#b5e237"/><path d="m500.960938 241.226562c0 16.199219-13.136719 29.335938-29.335938 29.335938h-126.066406v-129.976562c23.636718 0 42.808594 19.121093 42.894531 42.738281h35.429687c15.945313 0 28.917969 12.722656 29.328126 28.566406h18.414062c8.101562 0 15.433594 3.285156 20.742188 8.59375 5.3125 5.308594 8.59375 12.644531 8.59375 20.742187zm0 0" fill="#95d600"/><path d="m345.558594 183.324219v28.566406h-107.648438c.40625-15.84375 13.378906-28.566406 29.324219-28.566406zm0 0" fill="#95d600"/><path d="m453.210938 211.890625h-107.652344v-28.566406h78.324218c15.945313 0 28.917969 12.722656 29.328126 28.566406zm0 0" fill="#85af12"/><path d="m230.351562 319.398438c0 10.917968-8.851562 19.773437-19.769531 19.773437h-169.933593c-5.460938 0-10.402344-2.214844-13.980469-5.792969s-5.789063-8.519531-5.789063-13.980468c0-10.917969 8.847656-19.773438 19.769532-19.773438h12.414062c.273438-10.679688 9.015625-19.253906 19.761719-19.253906h23.878906c.058594-15.917969 12.980469-28.804688 28.910156-28.804688 15.933594 0 28.851563 12.886719 28.910157 28.804688h23.878906c10.75 0 19.492187 8.574218 19.765625 19.253906h12.414062c5.460938 0 10.402344 2.214844 13.980469 5.792969s5.789062 8.519531 5.789062 13.980469zm0 0" fill="#b5e237"/><path d="m230.351562 319.398438c0 10.917968-8.851562 19.773437-19.769531 19.773437h-84.96875v-87.605469c15.933594 0 28.851563 12.886719 28.910157 28.804688h23.878906c10.746094 0 19.492187 8.574218 19.765625 19.257812h12.414062c5.457031 0 10.398438 2.210938 13.976563 5.789063 3.582031 3.578125 5.792968 8.519531 5.792968 13.980469zm0 0" fill="#95d600"/><path d="m125.613281 280.371094v19.253906h-72.550781c.273438-10.679688 9.015625-19.253906 19.761719-19.253906zm0 0" fill="#95d600"/><path d="m198.167969 299.625h-72.554688v-19.253906h52.789063c10.746094 0 19.492187 8.574218 19.765625 19.253906zm0 0" fill="#85af12"/><path d="m379.019531 479.910156-.410156.859375c-36.410156 19.910157-78.1875 31.230469-122.609375 31.230469-44.808594 0-86.941406-11.519531-123.578125-31.761719l-.160156-.328125v-.011718c-11.332031-24.027344 6.199219-51.667969 32.769531-51.667969h181.21875c26.570312 0 44.101562 27.648437 32.769531 51.679687zm0 0" fill="#313b5a"/><path d="m379.019531 479.910156-.410156.859375c-36.410156 19.910157-78.1875 31.230469-122.609375 31.230469v-83.769531h90.25c26.570312 0 44.101562 27.648437 32.769531 51.679687zm0 0" fill="#20273a"/><path d="m407.171875 462.609375c-8.613281 6.3125-17.632813 12.101563-27.023437 17.300781h-248.320313c-9.578125-5.320312-18.789063-11.238281-27.558594-17.710937 2.601563-7.148438 6.75-13.558594 12.019531-18.828125 9.351563-9.351563 22.269532-15.140625 36.539063-15.140625h205.632813c22.46875 0 41.597656 14.347656 48.710937 34.378906zm0 0" fill="#fff"/><path d="m407.171875 462.609375c-8.613281 6.3125-17.632813 12.101563-27.023437 17.300781h-124.148438v-51.679687h102.460938c22.46875 0 41.597656 14.347656 48.710937 34.378906zm0 0" fill="#d0f6ff"/></svg>